# MagicaVoxel @ Ephtracy

# group
o 

# material
mtllib tableBrokenRight.mtl
usemtl palette

# normals
vn -1 0 0
vn 1 0 0
vn 0 0 1
vn 0 0 -1
vn 0 -1 0
vn 0 1 0

# texcoords
vt 0.533203 0.5
vt 0.537109 0.5

# verts
v -3.5 2.1 2.2
v -3.5 2.1 2.1
v -3.5 2.1 -3.5
v -3.5 2.1 -3.7
v -3.5 2.7 2.2
v -3.5 2.7 2.1
v -3.5 2.7 -3.5
v -3.5 2.7 -3.7
v -3.3 2.1 2.5
v -3.3 2.1 2.2
v -3.3 2.1 1.1
v -3.3 2.1 0.5
v -3.3 2.1 -1.4
v -3.3 2.1 -1.5
v -3.3 2.7 2.5
v -3.3 2.7 2.2
v -3.3 2.7 1.1
v -3.3 2.7 0.5
v -3.3 2.7 -1.4
v -3.3 2.7 -1.5
v -3.1 1.2 3.1
v -3.1 1.2 2.7
v -3.1 1.3 3.1
v -3.1 1.3 2.7
v -3.1 1.4 -2.8
v -3.1 1.4 -3.2
v -3.1 1.5 -2.8
v -3.1 1.5 -3.2
v -3.1 2.1 2.7
v -3.1 2.1 2.5
v -3.1 2.1 2.1
v -3.1 2.1 1.1
v -3.1 2.1 -1.5
v -3.1 2.1 -2.8
v -3.1 2.1 -3.2
v -3.1 2.1 -3.5
v -3.1 2.7 3.1
v -3.1 2.7 2.5
v -3.1 2.7 2.1
v -3.1 2.7 1.1
v -3.1 2.7 -1.5
v -3.1 2.7 -3.5
v -3 2.1 0.5
v -3 2.1 -1.4
v -3 2.7 0.5
v -3 2.7 -1.4
v -2.8 2.1 3.7
v -2.8 2.1 3.1
v -2.8 2.7 3.7
v -2.8 2.7 3.1
v 2.1 0 3.2
v 2.1 0 2
v 2.1 0.1 3.2
v 2.1 0.1 2
v 2.1 1.2 3.1
v 2.1 1.2 2.7
v 2.1 1.3 3.1
v 2.1 1.3 2.7
v 2.1 2.1 3.2
v 2.1 2.1 3.1
v 2.1 2.1 2.7
v 2.1 2.1 2
v 2.2 0 -2.1
v 2.2 0 -3.4
v 2.2 0.1 -2.1
v 2.2 0.1 -3.4
v 2.2 1.4 -2.8
v 2.2 1.4 -3.2
v 2.2 1.5 -2.8
v 2.2 1.5 -3.2
v 2.2 2.1 -2.1
v 2.2 2.1 -2.8
v 2.2 2.1 -3.2
v 2.2 2.1 -3.4
v 2.6 1.2 2
v 2.6 1.2 -2.1
v 2.6 1.3 2
v 2.6 1.3 -2.1
v 2.6 2.1 2
v 2.6 2.1 -2.1
v 3 1.2 2
v 3 1.2 -2.1
v 3 1.3 2
v 3 1.3 -2.1
v 3 2.1 2
v 3 2.1 -2.1
v 3.2 0 3.2
v 3.2 0 2
v 3.2 0 -2.1
v 3.2 0 -3.4
v 3.2 0.1 3.2
v 3.2 0.1 2
v 3.2 0.1 -2.1
v 3.2 0.1 -3.4
v 3.2 2.1 3.2
v 3.2 2.1 2
v 3.2 2.1 -2.1
v 3.2 2.1 -3.4
v 3.5 2.1 3.7
v 3.5 2.1 -3.7
v 3.5 2.7 3.7
v 3.5 2.7 -3.7
v -2.8 2.1 3.7
v -2.8 2.7 3.7
v 3.5 2.1 3.7
v 3.5 2.7 3.7
v 2.1 0 3.2
v 2.1 0.1 3.2
v 2.1 2.1 3.2
v 3.2 0 3.2
v 3.2 0.1 3.2
v 3.2 2.1 3.2
v -3.1 1.2 3.1
v -3.1 1.3 3.1
v -3.1 2.7 3.1
v -2.8 2.1 3.1
v -2.8 2.7 3.1
v 2.1 1.2 3.1
v 2.1 1.3 3.1
v 2.1 2.1 3.1
v -3.3 2.1 2.5
v -3.3 2.7 2.5
v -3.1 2.1 2.5
v -3.1 2.7 2.5
v -3.5 2.1 2.2
v -3.5 2.7 2.2
v -3.3 2.1 2.2
v -3.3 2.7 2.2
v -3.3 2.1 1.1
v -3.3 2.7 1.1
v -3.1 2.1 1.1
v -3.1 2.7 1.1
v -3.3 2.1 -1.4
v -3.3 2.7 -1.4
v -3 2.1 -1.4
v -3 2.7 -1.4
v 2.2 0 -2.1
v 2.2 0.1 -2.1
v 2.2 2.1 -2.1
v 2.6 1.2 -2.1
v 2.6 1.3 -2.1
v 2.6 2.1 -2.1
v 3 1.2 -2.1
v 3 1.3 -2.1
v 3 2.1 -2.1
v 3.2 0 -2.1
v 3.2 0.1 -2.1
v 3.2 2.1 -2.1
v -3.1 1.4 -2.8
v -3.1 1.5 -2.8
v -3.1 2.1 -2.8
v 2.2 1.4 -2.8
v 2.2 1.5 -2.8
v 2.2 2.1 -2.8
v -3.5 2.1 -3.5
v -3.5 2.7 -3.5
v -3.1 2.1 -3.5
v -3.1 2.7 -3.5
v -3.1 1.2 2.7
v -3.1 1.3 2.7
v -3.1 2.1 2.7
v 2.1 1.2 2.7
v 2.1 1.3 2.7
v 2.1 2.1 2.7
v -3.5 2.1 2.1
v -3.5 2.7 2.1
v -3.1 2.1 2.1
v -3.1 2.7 2.1
v 2.1 0 2
v 2.1 0.1 2
v 2.1 2.1 2
v 2.6 1.2 2
v 2.6 1.3 2
v 2.6 2.1 2
v 3 1.2 2
v 3 1.3 2
v 3 2.1 2
v 3.2 0 2
v 3.2 0.1 2
v 3.2 2.1 2
v -3.3 2.1 0.5
v -3.3 2.7 0.5
v -3 2.1 0.5
v -3 2.7 0.5
v -3.3 2.1 -1.5
v -3.3 2.7 -1.5
v -3.1 2.1 -1.5
v -3.1 2.7 -1.5
v -3.1 1.4 -3.2
v -3.1 1.5 -3.2
v -3.1 2.1 -3.2
v 2.2 1.4 -3.2
v 2.2 1.5 -3.2
v 2.2 2.1 -3.2
v 2.2 0 -3.4
v 2.2 0.1 -3.4
v 2.2 2.1 -3.4
v 3.2 0 -3.4
v 3.2 0.1 -3.4
v 3.2 2.1 -3.4
v -3.5 2.1 -3.7
v -3.5 2.7 -3.7
v 3.5 2.1 -3.7
v 3.5 2.7 -3.7
v 2.1 0 3.2
v 3.2 0 3.2
v 2.1 0 2
v 3.2 0 2
v 2.2 0 -2.1
v 3.2 0 -2.1
v 2.2 0 -3.4
v 3.2 0 -3.4
v -3.1 1.2 3.1
v 2.1 1.2 3.1
v -3.1 1.2 2.7
v 2.1 1.2 2.7
v 2.6 1.2 2
v 3 1.2 2
v 2.6 1.2 -2.1
v 3 1.2 -2.1
v -3.1 1.4 -2.8
v 2.2 1.4 -2.8
v -3.1 1.4 -3.2
v 2.2 1.4 -3.2
v -2.8 2.1 3.7
v 3.5 2.1 3.7
v 2.1 2.1 3.2
v 3.2 2.1 3.2
v -2.8 2.1 3.1
v 2.1 2.1 3.1
v -3.1 2.1 2.7
v 2.1 2.1 2.7
v -3.3 2.1 2.5
v -3.1 2.1 2.5
v -3.5 2.1 2.2
v -3.3 2.1 2.2
v -3.5 2.1 2.1
v -3.1 2.1 2.1
v 2.1 2.1 2
v 2.6 2.1 2
v 3 2.1 2
v 3.2 2.1 2
v -3.3 2.1 1.1
v -3.1 2.1 1.1
v -3.3 2.1 0.5
v -3 2.1 0.5
v -3.3 2.1 -1.4
v -3 2.1 -1.4
v -3.3 2.1 -1.5
v -3.1 2.1 -1.5
v 2.2 2.1 -2.1
v 2.6 2.1 -2.1
v 3 2.1 -2.1
v 3.2 2.1 -2.1
v -3.1 2.1 -2.8
v 2.2 2.1 -2.8
v -3.1 2.1 -3.2
v 2.2 2.1 -3.2
v 2.2 2.1 -3.4
v 3.2 2.1 -3.4
v -3.5 2.1 -3.5
v -3.1 2.1 -3.5
v -3.5 2.1 -3.7
v 3.5 2.1 -3.7
v -2.8 2.7 3.7
v 3.5 2.7 3.7
v -3.1 2.7 3.1
v -2.8 2.7 3.1
v -3.3 2.7 2.5
v -3.1 2.7 2.5
v -3.5 2.7 2.2
v -3.3 2.7 2.2
v -3.5 2.7 2.1
v -3.1 2.7 2.1
v -3.3 2.7 1.1
v -3.1 2.7 1.1
v -3.3 2.7 0.5
v -3 2.7 0.5
v -3.3 2.7 -1.4
v -3 2.7 -1.4
v -3.3 2.7 -1.5
v -3.1 2.7 -1.5
v -3.5 2.7 -3.5
v -3.1 2.7 -3.5
v -3.5 2.7 -3.7
v 3.5 2.7 -3.7

# faces
f 5/2/1 2/2/1 1/2/1
f 6/2/1 2/2/1 5/2/1
f 7/2/1 4/2/1 3/2/1
f 8/2/1 4/2/1 7/2/1
f 15/2/1 10/2/1 9/2/1
f 16/2/1 10/2/1 15/2/1
f 17/2/1 12/2/1 11/2/1
f 18/2/1 12/2/1 17/2/1
f 19/2/1 14/2/1 13/2/1
f 20/2/1 14/2/1 19/2/1
f 23/1/1 22/1/1 21/1/1
f 24/1/1 22/1/1 23/1/1
f 27/1/1 26/1/1 25/1/1
f 28/1/1 26/1/1 27/1/1
f 29/2/1 24/2/1 23/2/1
f 34/2/1 28/2/1 27/2/1
f 35/2/1 28/2/1 34/2/1
f 37/2/1 29/2/1 23/2/1
f 37/2/1 30/2/1 29/2/1
f 38/2/1 30/2/1 37/2/1
f 39/2/1 32/2/1 31/2/1
f 40/2/1 32/2/1 39/2/1
f 41/2/1 35/2/1 34/2/1
f 41/2/1 36/2/1 35/2/1
f 41/2/1 34/2/1 33/2/1
f 42/2/1 36/2/1 41/2/1
f 45/2/1 44/2/1 43/2/1
f 46/2/1 44/2/1 45/2/1
f 49/2/1 48/2/1 47/2/1
f 50/2/1 48/2/1 49/2/1
f 53/1/1 52/1/1 51/1/1
f 54/1/1 52/1/1 53/1/1
f 55/2/1 54/2/1 53/2/1
f 56/2/1 54/2/1 55/2/1
f 57/2/1 55/2/1 53/2/1
f 58/2/1 54/2/1 56/2/1
f 59/2/1 57/2/1 53/2/1
f 60/2/1 57/2/1 59/2/1
f 61/2/1 54/2/1 58/2/1
f 62/2/1 54/2/1 61/2/1
f 65/1/1 64/1/1 63/1/1
f 66/1/1 64/1/1 65/1/1
f 67/2/1 66/2/1 65/2/1
f 68/2/1 66/2/1 67/2/1
f 69/2/1 67/2/1 65/2/1
f 70/2/1 66/2/1 68/2/1
f 71/2/1 69/2/1 65/2/1
f 72/2/1 69/2/1 71/2/1
f 73/2/1 66/2/1 70/2/1
f 74/2/1 66/2/1 73/2/1
f 77/1/1 76/1/1 75/1/1
f 78/1/1 76/1/1 77/1/1
f 79/2/1 78/2/1 77/2/1
f 80/2/1 78/2/1 79/2/1
f 81/1/2 82/1/2 83/1/2
f 83/1/2 82/1/2 84/1/2
f 83/2/2 84/2/2 85/2/2
f 85/2/2 84/2/2 86/2/2
f 87/1/2 88/1/2 91/1/2
f 91/1/2 88/1/2 92/1/2
f 89/1/2 90/1/2 93/1/2
f 93/1/2 90/1/2 94/1/2
f 91/2/2 92/2/2 95/2/2
f 95/2/2 92/2/2 96/2/2
f 93/2/2 94/2/2 97/2/2
f 97/2/2 94/2/2 98/2/2
f 99/2/2 100/2/2 101/2/2
f 101/2/2 100/2/2 102/2/2
f 105/2/3 104/2/3 103/2/3
f 106/2/3 104/2/3 105/2/3
f 110/1/3 108/1/3 107/1/3
f 111/2/3 109/2/3 108/2/3
f 111/1/3 108/1/3 110/1/3
f 112/2/3 109/2/3 111/2/3
f 116/2/3 115/2/3 114/2/3
f 117/2/3 115/2/3 116/2/3
f 118/1/3 114/1/3 113/1/3
f 119/2/3 116/2/3 114/2/3
f 119/1/3 114/1/3 118/1/3
f 120/2/3 116/2/3 119/2/3
f 123/2/3 122/2/3 121/2/3
f 124/2/3 122/2/3 123/2/3
f 127/2/3 126/2/3 125/2/3
f 128/2/3 126/2/3 127/2/3
f 131/2/3 130/2/3 129/2/3
f 132/2/3 130/2/3 131/2/3
f 135/2/3 134/2/3 133/2/3
f 136/2/3 134/2/3 135/2/3
f 140/2/3 139/2/3 138/2/3
f 141/2/3 139/2/3 140/2/3
f 142/2/3 139/2/3 141/2/3
f 143/2/3 140/2/3 138/2/3
f 146/1/3 138/1/3 137/1/3
f 147/2/3 145/2/3 144/2/3
f 147/1/3 138/1/3 146/1/3
f 147/2/3 143/2/3 138/2/3
f 147/2/3 144/2/3 143/2/3
f 148/2/3 145/2/3 147/2/3
f 152/1/3 150/1/3 149/1/3
f 153/2/3 151/2/3 150/2/3
f 153/1/3 150/1/3 152/1/3
f 154/2/3 151/2/3 153/2/3
f 157/2/3 156/2/3 155/2/3
f 158/2/3 156/2/3 157/2/3
f 159/1/4 160/1/4 162/1/4
f 160/2/4 161/2/4 163/2/4
f 162/1/4 160/1/4 163/1/4
f 163/2/4 161/2/4 164/2/4
f 165/2/4 166/2/4 167/2/4
f 167/2/4 166/2/4 168/2/4
f 170/2/4 171/2/4 172/2/4
f 172/2/4 171/2/4 173/2/4
f 173/2/4 171/2/4 174/2/4
f 170/2/4 172/2/4 175/2/4
f 169/1/4 170/1/4 178/1/4
f 176/2/4 177/2/4 179/2/4
f 178/1/4 170/1/4 179/1/4
f 170/2/4 175/2/4 179/2/4
f 175/2/4 176/2/4 179/2/4
f 179/2/4 177/2/4 180/2/4
f 181/2/4 182/2/4 183/2/4
f 183/2/4 182/2/4 184/2/4
f 185/2/4 186/2/4 187/2/4
f 187/2/4 186/2/4 188/2/4
f 189/1/4 190/1/4 192/1/4
f 190/2/4 191/2/4 193/2/4
f 192/1/4 190/1/4 193/1/4
f 193/2/4 191/2/4 194/2/4
f 195/1/4 196/1/4 198/1/4
f 196/2/4 197/2/4 199/2/4
f 198/1/4 196/1/4 199/1/4
f 199/2/4 197/2/4 200/2/4
f 201/2/4 202/2/4 203/2/4
f 203/2/4 202/2/4 204/2/4
f 207/1/5 206/1/5 205/1/5
f 208/1/5 206/1/5 207/1/5
f 211/1/5 210/1/5 209/1/5
f 212/1/5 210/1/5 211/1/5
f 215/1/5 214/1/5 213/1/5
f 216/1/5 214/1/5 215/1/5
f 219/1/5 218/1/5 217/1/5
f 220/1/5 218/1/5 219/1/5
f 223/1/5 222/1/5 221/1/5
f 224/1/5 222/1/5 223/1/5
f 227/2/5 226/2/5 225/2/5
f 228/2/5 226/2/5 227/2/5
f 229/2/5 227/2/5 225/2/5
f 230/2/5 227/2/5 229/2/5
f 234/2/5 232/2/5 231/2/5
f 236/2/5 234/2/5 233/2/5
f 237/2/5 236/2/5 235/2/5
f 238/2/5 232/2/5 234/2/5
f 238/2/5 236/2/5 237/2/5
f 238/2/5 234/2/5 236/2/5
f 239/2/5 232/2/5 238/2/5
f 242/2/5 226/2/5 228/2/5
f 244/2/5 240/2/5 239/2/5
f 244/2/5 239/2/5 238/2/5
f 245/2/5 244/2/5 243/2/5
f 246/2/5 240/2/5 244/2/5
f 246/2/5 244/2/5 245/2/5
f 248/2/5 240/2/5 246/2/5
f 249/2/5 248/2/5 247/2/5
f 250/2/5 248/2/5 249/2/5
f 251/2/5 240/2/5 248/2/5
f 251/2/5 248/2/5 250/2/5
f 252/2/5 240/2/5 251/2/5
f 253/2/5 242/2/5 241/2/5
f 254/2/5 226/2/5 242/2/5
f 254/2/5 242/2/5 253/2/5
f 255/2/5 251/2/5 250/2/5
f 256/2/5 251/2/5 255/2/5
f 259/2/5 258/2/5 257/2/5
f 260/2/5 226/2/5 254/2/5
f 262/2/5 259/2/5 257/2/5
f 262/2/5 260/2/5 259/2/5
f 263/2/5 262/2/5 261/2/5
f 264/2/5 226/2/5 260/2/5
f 264/2/5 262/2/5 263/2/5
f 264/2/5 260/2/5 262/2/5
f 265/2/6 266/2/6 268/2/6
f 267/2/6 268/2/6 270/2/6
f 269/2/6 270/2/6 272/2/6
f 271/2/6 272/2/6 273/2/6
f 270/2/6 268/2/6 274/2/6
f 273/2/6 272/2/6 274/2/6
f 272/2/6 270/2/6 274/2/6
f 274/2/6 268/2/6 276/2/6
f 275/2/6 276/2/6 277/2/6
f 276/2/6 268/2/6 278/2/6
f 277/2/6 276/2/6 278/2/6
f 278/2/6 268/2/6 280/2/6
f 279/2/6 280/2/6 281/2/6
f 281/2/6 280/2/6 282/2/6
f 282/2/6 280/2/6 284/2/6
f 283/2/6 284/2/6 285/2/6
f 268/2/6 266/2/6 286/2/6
f 285/2/6 284/2/6 286/2/6
f 280/2/6 268/2/6 286/2/6
f 284/2/6 280/2/6 286/2/6
