# MagicaVoxel @ Ephtracy

# group
o 

# material
mtllib DevPlayerHeadphones.mtl
usemtl palette

# normals
vn -1 0 0
vn 1 0 0
vn 0 0 1
vn 0 0 -1
vn 0 -1 0
vn 0 1 0

# texcoords
vt 0.990234 0.5
vt 0.994141 0.5

# verts
v 0 0.3 -0.1
v 0 0.3 -0.2
v 0 0.4 0
v 0 0.4 -0.1
v 0 0.4 -0.2
v 0 0.4 -0.3
v 0 0.5 0
v 0 0.5 -0.1
v 0 0.5 -0.2
v 0 0.5 -0.3
v 0 0.6 -0.1
v 0 0.6 -0.2
v 0.1 0.3 0
v 0.1 0.3 -0.1
v 0.1 0.3 -0.2
v 0.1 0.3 -0.3
v 0.1 0.4 0
v 0.1 0.4 -0.1
v 0.1 0.4 -0.2
v 0.1 0.4 -0.3
v 0.1 0.5 0
v 0.1 0.5 -0.1
v 0.1 0.5 -0.2
v 0.1 0.5 -0.3
v 0.1 0.6 0
v 0.1 0.6 -0.1
v 0.1 0.6 -0.2
v 0.1 0.6 -0.3
v 0.1 0.8 -0.1
v 0.1 0.8 -0.2
v 0.2 0.8 -0.1
v 0.2 0.8 -0.2
v 0.2 0.9 -0.1
v 0.2 0.9 -0.2
v 0.8 0.3 0
v 0.8 0.3 -0.3
v 0.8 0.4 -0.1
v 0.8 0.4 -0.2
v 0.8 0.6 0
v 0.8 0.6 -0.1
v 0.8 0.6 -0.2
v 0.8 0.6 -0.3
v 0.8 0.8 -0.1
v 0.8 0.8 -0.2
v 0.2 0.3 0
v 0.2 0.3 -0.1
v 0.2 0.3 -0.2
v 0.2 0.3 -0.3
v 0.2 0.6 0
v 0.2 0.6 -0.1
v 0.2 0.6 -0.2
v 0.2 0.6 -0.3
v 0.2 0.8 -0.1
v 0.2 0.8 -0.2
v 0.8 0.8 -0.1
v 0.8 0.8 -0.2
v 0.8 0.9 -0.1
v 0.8 0.9 -0.2
v 0.9 0.3 0
v 0.9 0.3 -0.1
v 0.9 0.3 -0.2
v 0.9 0.3 -0.3
v 0.9 0.4 0
v 0.9 0.4 -0.1
v 0.9 0.4 -0.2
v 0.9 0.4 -0.3
v 0.9 0.5 0
v 0.9 0.5 -0.1
v 0.9 0.5 -0.2
v 0.9 0.5 -0.3
v 0.9 0.6 0
v 0.9 0.6 -0.1
v 0.9 0.6 -0.2
v 0.9 0.6 -0.3
v 0.9 0.8 -0.1
v 0.9 0.8 -0.2
v 1 0.3 -0.1
v 1 0.3 -0.2
v 1 0.4 0
v 1 0.4 -0.1
v 1 0.4 -0.2
v 1 0.4 -0.3
v 1 0.5 0
v 1 0.5 -0.1
v 1 0.5 -0.2
v 1 0.5 -0.3
v 1 0.6 -0.1
v 1 0.6 -0.2
v 0 0.4 0
v 0 0.5 0
v 0.1 0.3 0
v 0.1 0.4 0
v 0.1 0.5 0
v 0.1 0.6 0
v 0.2 0.3 0
v 0.2 0.6 0
v 0.8 0.3 0
v 0.8 0.6 0
v 0.9 0.3 0
v 0.9 0.4 0
v 0.9 0.5 0
v 0.9 0.6 0
v 1 0.4 0
v 1 0.5 0
v 0 0.3 -0.1
v 0 0.4 -0.1
v 0 0.5 -0.1
v 0 0.6 -0.1
v 0.1 0.3 -0.1
v 0.1 0.4 -0.1
v 0.1 0.5 -0.1
v 0.1 0.6 -0.1
v 0.1 0.8 -0.1
v 0.2 0.6 -0.1
v 0.2 0.8 -0.1
v 0.2 0.9 -0.1
v 0.8 0.6 -0.1
v 0.8 0.8 -0.1
v 0.8 0.9 -0.1
v 0.9 0.3 -0.1
v 0.9 0.4 -0.1
v 0.9 0.5 -0.1
v 0.9 0.6 -0.1
v 0.9 0.8 -0.1
v 1 0.3 -0.1
v 1 0.4 -0.1
v 1 0.5 -0.1
v 1 0.6 -0.1
v 0 0.3 -0.2
v 0 0.4 -0.2
v 0 0.5 -0.2
v 0 0.6 -0.2
v 0.1 0.3 -0.2
v 0.1 0.4 -0.2
v 0.1 0.5 -0.2
v 0.1 0.6 -0.2
v 0.1 0.8 -0.2
v 0.2 0.6 -0.2
v 0.2 0.8 -0.2
v 0.2 0.9 -0.2
v 0.8 0.6 -0.2
v 0.8 0.8 -0.2
v 0.8 0.9 -0.2
v 0.9 0.3 -0.2
v 0.9 0.4 -0.2
v 0.9 0.5 -0.2
v 0.9 0.6 -0.2
v 0.9 0.8 -0.2
v 1 0.3 -0.2
v 1 0.4 -0.2
v 1 0.5 -0.2
v 1 0.6 -0.2
v 0 0.4 -0.3
v 0 0.5 -0.3
v 0.1 0.3 -0.3
v 0.1 0.4 -0.3
v 0.1 0.5 -0.3
v 0.1 0.6 -0.3
v 0.2 0.3 -0.3
v 0.2 0.6 -0.3
v 0.8 0.3 -0.3
v 0.8 0.6 -0.3
v 0.9 0.3 -0.3
v 0.9 0.4 -0.3
v 0.9 0.5 -0.3
v 0.9 0.6 -0.3
v 1 0.4 -0.3
v 1 0.5 -0.3
v 0.1 0.3 0
v 0.2 0.3 0
v 0.8 0.3 0
v 0.9 0.3 0
v 0 0.3 -0.1
v 0.1 0.3 -0.1
v 0.2 0.3 -0.1
v 0.9 0.3 -0.1
v 1 0.3 -0.1
v 0 0.3 -0.2
v 0.1 0.3 -0.2
v 0.2 0.3 -0.2
v 0.9 0.3 -0.2
v 1 0.3 -0.2
v 0.1 0.3 -0.3
v 0.2 0.3 -0.3
v 0.8 0.3 -0.3
v 0.9 0.3 -0.3
v 0 0.4 0
v 0.1 0.4 0
v 0.9 0.4 0
v 1 0.4 0
v 0 0.4 -0.1
v 0.1 0.4 -0.1
v 0.9 0.4 -0.1
v 1 0.4 -0.1
v 0 0.4 -0.2
v 0.1 0.4 -0.2
v 0.9 0.4 -0.2
v 1 0.4 -0.2
v 0 0.4 -0.3
v 0.1 0.4 -0.3
v 0.9 0.4 -0.3
v 1 0.4 -0.3
v 0.2 0.8 -0.1
v 0.8 0.8 -0.1
v 0.2 0.8 -0.2
v 0.8 0.8 -0.2
v 0 0.5 0
v 0.1 0.5 0
v 0.9 0.5 0
v 1 0.5 0
v 0 0.5 -0.1
v 0.1 0.5 -0.1
v 0.9 0.5 -0.1
v 1 0.5 -0.1
v 0 0.5 -0.2
v 0.1 0.5 -0.2
v 0.9 0.5 -0.2
v 1 0.5 -0.2
v 0 0.5 -0.3
v 0.1 0.5 -0.3
v 0.9 0.5 -0.3
v 1 0.5 -0.3
v 0.1 0.6 0
v 0.2 0.6 0
v 0.8 0.6 0
v 0.9 0.6 0
v 0 0.6 -0.1
v 0.1 0.6 -0.1
v 0.2 0.6 -0.1
v 0.8 0.6 -0.1
v 0.9 0.6 -0.1
v 1 0.6 -0.1
v 0 0.6 -0.2
v 0.1 0.6 -0.2
v 0.2 0.6 -0.2
v 0.8 0.6 -0.2
v 0.9 0.6 -0.2
v 1 0.6 -0.2
v 0.1 0.6 -0.3
v 0.2 0.6 -0.3
v 0.8 0.6 -0.3
v 0.9 0.6 -0.3
v 0.1 0.8 -0.1
v 0.2 0.8 -0.1
v 0.8 0.8 -0.1
v 0.9 0.8 -0.1
v 0.1 0.8 -0.2
v 0.2 0.8 -0.2
v 0.8 0.8 -0.2
v 0.9 0.8 -0.2
v 0.2 0.9 -0.1
v 0.8 0.9 -0.1
v 0.2 0.9 -0.2
v 0.8 0.9 -0.2

# faces
f 4/1/1 2/1/1 1/1/1
f 5/1/1 2/1/1 4/1/1
f 7/1/1 4/1/1 3/1/1
f 7/1/1 6/1/1 5/1/1
f 7/1/1 5/1/1 4/1/1
f 8/1/1 6/1/1 7/1/1
f 9/1/1 6/1/1 8/1/1
f 10/1/1 6/1/1 9/1/1
f 11/1/1 9/1/1 8/1/1
f 12/1/1 9/1/1 11/1/1
f 17/1/1 14/1/1 13/1/1
f 18/1/1 14/1/1 17/1/1
f 19/1/1 16/1/1 15/1/1
f 20/1/1 16/1/1 19/1/1
f 25/1/1 22/1/1 21/1/1
f 26/1/1 22/1/1 25/1/1
f 27/1/1 24/1/1 23/1/1
f 28/1/1 24/1/1 27/1/1
f 29/2/1 27/2/1 26/2/1
f 30/2/1 27/2/1 29/2/1
f 33/2/1 32/2/1 31/2/1
f 34/2/1 32/2/1 33/2/1
f 37/1/1 36/1/1 35/1/1
f 38/1/1 36/1/1 37/1/1
f 39/1/1 37/1/1 35/1/1
f 40/2/1 38/2/1 37/2/1
f 40/1/1 37/1/1 39/1/1
f 41/1/1 36/1/1 38/1/1
f 41/2/1 38/2/1 40/2/1
f 42/1/1 36/1/1 41/1/1
f 43/2/1 41/2/1 40/2/1
f 44/2/1 41/2/1 43/2/1
f 45/1/2 46/1/2 49/1/2
f 46/2/2 47/2/2 50/2/2
f 49/1/2 46/1/2 50/1/2
f 47/1/2 48/1/2 51/1/2
f 50/2/2 47/2/2 51/2/2
f 51/1/2 48/1/2 52/1/2
f 50/2/2 51/2/2 53/2/2
f 53/2/2 51/2/2 54/2/2
f 55/2/2 56/2/2 57/2/2
f 57/2/2 56/2/2 58/2/2
f 59/1/2 60/1/2 63/1/2
f 63/1/2 60/1/2 64/1/2
f 61/1/2 62/1/2 65/1/2
f 65/1/2 62/1/2 66/1/2
f 67/1/2 68/1/2 71/1/2
f 71/1/2 68/1/2 72/1/2
f 69/1/2 70/1/2 73/1/2
f 73/1/2 70/1/2 74/1/2
f 72/2/2 73/2/2 75/2/2
f 75/2/2 73/2/2 76/2/2
f 77/1/2 78/1/2 80/1/2
f 80/1/2 78/1/2 81/1/2
f 79/1/2 80/1/2 83/1/2
f 81/1/2 82/1/2 83/1/2
f 80/1/2 81/1/2 83/1/2
f 83/1/2 82/1/2 84/1/2
f 84/1/2 82/1/2 85/1/2
f 85/1/2 82/1/2 86/1/2
f 84/1/2 85/1/2 87/1/2
f 87/1/2 85/1/2 88/1/2
f 92/1/3 90/1/3 89/1/3
f 93/1/3 90/1/3 92/1/3
f 95/1/3 92/1/3 91/1/3
f 95/1/3 94/1/3 93/1/3
f 95/1/3 93/1/3 92/1/3
f 96/1/3 94/1/3 95/1/3
f 99/1/3 98/1/3 97/1/3
f 100/1/3 98/1/3 99/1/3
f 101/1/3 98/1/3 100/1/3
f 102/1/3 98/1/3 101/1/3
f 103/1/3 101/1/3 100/1/3
f 104/1/3 101/1/3 103/1/3
f 109/1/3 106/1/3 105/1/3
f 110/1/3 106/1/3 109/1/3
f 111/1/3 108/1/3 107/1/3
f 112/1/3 108/1/3 111/1/3
f 114/2/3 113/2/3 112/2/3
f 115/2/3 113/2/3 114/2/3
f 118/2/3 116/2/3 115/2/3
f 119/2/3 116/2/3 118/2/3
f 123/2/3 118/2/3 117/2/3
f 124/2/3 118/2/3 123/2/3
f 125/1/3 121/1/3 120/1/3
f 126/1/3 121/1/3 125/1/3
f 127/1/3 123/1/3 122/1/3
f 128/1/3 123/1/3 127/1/3
f 129/1/4 130/1/4 133/1/4
f 133/1/4 130/1/4 134/1/4
f 131/1/4 132/1/4 135/1/4
f 135/1/4 132/1/4 136/1/4
f 136/2/4 137/2/4 138/2/4
f 138/2/4 137/2/4 139/2/4
f 139/2/4 140/2/4 142/2/4
f 142/2/4 140/2/4 143/2/4
f 141/2/4 142/2/4 147/2/4
f 147/2/4 142/2/4 148/2/4
f 144/1/4 145/1/4 149/1/4
f 149/1/4 145/1/4 150/1/4
f 146/1/4 147/1/4 151/1/4
f 151/1/4 147/1/4 152/1/4
f 153/1/4 154/1/4 156/1/4
f 156/1/4 154/1/4 157/1/4
f 155/1/4 156/1/4 159/1/4
f 157/1/4 158/1/4 159/1/4
f 156/1/4 157/1/4 159/1/4
f 159/1/4 158/1/4 160/1/4
f 161/1/4 162/1/4 163/1/4
f 163/1/4 162/1/4 164/1/4
f 164/1/4 162/1/4 165/1/4
f 165/1/4 162/1/4 166/1/4
f 164/1/4 165/1/4 167/1/4
f 167/1/4 165/1/4 168/1/4
f 174/1/5 170/1/5 169/1/5
f 175/1/5 170/1/5 174/1/5
f 176/1/5 172/1/5 171/1/5
f 178/1/5 174/1/5 173/1/5
f 179/2/5 175/2/5 174/2/5
f 179/1/5 174/1/5 178/1/5
f 180/2/5 175/2/5 179/2/5
f 181/1/5 177/1/5 176/1/5
f 181/1/5 176/1/5 171/1/5
f 182/1/5 177/1/5 181/1/5
f 183/1/5 180/1/5 179/1/5
f 184/1/5 180/1/5 183/1/5
f 185/1/5 181/1/5 171/1/5
f 186/1/5 181/1/5 185/1/5
f 191/1/5 188/1/5 187/1/5
f 192/1/5 188/1/5 191/1/5
f 193/1/5 190/1/5 189/1/5
f 194/1/5 190/1/5 193/1/5
f 199/1/5 196/1/5 195/1/5
f 200/1/5 196/1/5 199/1/5
f 201/1/5 198/1/5 197/1/5
f 202/1/5 198/1/5 201/1/5
f 205/2/5 204/2/5 203/2/5
f 206/2/5 204/2/5 205/2/5
f 207/1/6 208/1/6 211/1/6
f 211/1/6 208/1/6 212/1/6
f 209/1/6 210/1/6 213/1/6
f 213/1/6 210/1/6 214/1/6
f 215/1/6 216/1/6 219/1/6
f 219/1/6 216/1/6 220/1/6
f 217/1/6 218/1/6 221/1/6
f 221/1/6 218/1/6 222/1/6
f 223/1/6 224/1/6 228/1/6
f 228/1/6 224/1/6 229/1/6
f 225/1/6 226/1/6 230/1/6
f 230/1/6 226/1/6 231/1/6
f 227/1/6 228/1/6 233/1/6
f 233/1/6 228/1/6 234/1/6
f 231/1/6 232/1/6 237/1/6
f 237/1/6 232/1/6 238/1/6
f 234/1/6 235/1/6 239/1/6
f 239/1/6 235/1/6 240/1/6
f 236/1/6 237/1/6 241/1/6
f 241/1/6 237/1/6 242/1/6
f 243/2/6 244/2/6 247/2/6
f 247/2/6 244/2/6 248/2/6
f 245/2/6 246/2/6 249/2/6
f 249/2/6 246/2/6 250/2/6
f 251/2/6 252/2/6 253/2/6
f 253/2/6 252/2/6 254/2/6
