# MagicaVoxel @ Ephtracy

# group
o 

# material
mtllib leaf.mtl
usemtl palette

# normals
vn -1 0 0
vn 1 0 0
vn 0 0 1
vn 0 0 -1
vn 0 -1 0
vn 0 1 0

# texcoords
vt 0.896484 0.5
vt 0.900391 0.5
vt 0.974609 0.5

# verts
v -0.7 0 0.6
v -0.7 0 -0.3
v -0.7 0.1 0.6
v -0.7 0.1 -0.3
v -0.6 0 0.7
v -0.6 0 0.6
v -0.6 0 -0.3
v -0.6 0 -0.5
v -0.6 0.1 0.7
v -0.6 0.1 0.6
v -0.6 0.1 -0.3
v -0.6 0.1 -0.5
v -0.5 0 0.9
v -0.5 0 0.7
v -0.5 0 -0.5
v -0.5 0 -0.6
v -0.5 0.1 0.9
v -0.5 0.1 0.7
v -0.5 0.1 -0.5
v -0.5 0.1 -0.6
v -0.4 0 1
v -0.4 0 0.9
v -0.4 0 -0.6
v -0.4 0 -0.7
v -0.4 0.1 1
v -0.4 0.1 0.9
v -0.4 0.1 -0.6
v -0.4 0.1 -0.7
v -0.3 0 1.3
v -0.3 0 1
v -0.3 0 -0.7
v -0.3 0 -0.8
v -0.3 0.1 1.3
v -0.3 0.1 1
v -0.3 0.1 -0.7
v -0.3 0.1 -0.8
v -0.2 0 -0.8
v -0.2 0 -0.9
v -0.2 0.1 -0.8
v -0.2 0.1 -0.9
v -0.2 0 1.3
v -0.2 0 1
v -0.2 0.1 1.3
v -0.2 0.1 1
v -0.1 0 1
v -0.1 0 0.9
v -0.1 0 -0.8
v -0.1 0 -0.9
v -0.1 0.1 1
v -0.1 0.1 0.9
v -0.1 0.1 -0.8
v -0.1 0.1 -0.9
v 5.96046e-008 0 0.9
v 5.96046e-008 0 0.8
v 5.96046e-008 0 -0.7
v 5.96046e-008 0 -0.8
v 5.96046e-008 0.1 0.9
v 5.96046e-008 0.1 0.8
v 5.96046e-008 0.1 -0.7
v 5.96046e-008 0.1 -0.8
v 0.1 0 0.8
v 0.1 0 0.7
v 0.1 0 -0.5
v 0.1 0 -0.7
v 0.1 0.1 0.8
v 0.1 0.1 0.7
v 0.1 0.1 -0.5
v 0.1 0.1 -0.7
v 0.2 0 0.7
v 0.2 0 0.5
v 0.2 0 -0.3
v 0.2 0 -0.5
v 0.2 0.1 0.7
v 0.2 0.1 0.5
v 0.2 0.1 -0.3
v 0.2 0.1 -0.5
v 0.3 0 0.5
v 0.3 0 -0.3
v 0.3 0.1 0.5
v 0.3 0.1 -0.3
v -0.3 0 1.3
v -0.3 0.1 1.3
v -0.2 0 1.3
v -0.2 0.1 1.3
v -0.4 0 1
v -0.4 0.1 1
v -0.3 0 1
v -0.3 0.1 1
v -0.2 0 1
v -0.2 0.1 1
v -0.1 0 1
v -0.1 0.1 1
v -0.5 0 0.9
v -0.5 0.1 0.9
v -0.4 0 0.9
v -0.4 0.1 0.9
v -0.1 0 0.9
v -0.1 0.1 0.9
v 5.96046e-008 0 0.9
v 5.96046e-008 0.1 0.9
v 5.96046e-008 0 0.8
v 5.96046e-008 0.1 0.8
v 0.1 0 0.8
v 0.1 0.1 0.8
v -0.6 0 0.7
v -0.6 0.1 0.7
v -0.5 0 0.7
v -0.5 0.1 0.7
v 0.1 0 0.7
v 0.1 0.1 0.7
v 0.2 0 0.7
v 0.2 0.1 0.7
v -0.7 0 0.6
v -0.7 0.1 0.6
v -0.6 0 0.6
v -0.6 0.1 0.6
v 0.2 0 0.5
v 0.2 0.1 0.5
v 0.3 0 0.5
v 0.3 0.1 0.5
v -0.7 0 -0.3
v -0.7 0.1 -0.3
v -0.6 0 -0.3
v -0.6 0.1 -0.3
v 0.2 0 -0.3
v 0.2 0.1 -0.3
v 0.3 0 -0.3
v 0.3 0.1 -0.3
v -0.6 0 -0.5
v -0.6 0.1 -0.5
v -0.5 0 -0.5
v -0.5 0.1 -0.5
v 0.1 0 -0.5
v 0.1 0.1 -0.5
v 0.2 0 -0.5
v 0.2 0.1 -0.5
v -0.5 0 -0.6
v -0.5 0.1 -0.6
v -0.4 0 -0.6
v -0.4 0.1 -0.6
v -0.4 0 -0.7
v -0.4 0.1 -0.7
v -0.3 0 -0.7
v -0.3 0.1 -0.7
v 5.96046e-008 0 -0.7
v 5.96046e-008 0.1 -0.7
v 0.1 0 -0.7
v 0.1 0.1 -0.7
v -0.3 0 -0.8
v -0.3 0.1 -0.8
v -0.2 0 -0.8
v -0.2 0.1 -0.8
v -0.1 0 -0.8
v -0.1 0.1 -0.8
v 5.96046e-008 0 -0.8
v 5.96046e-008 0.1 -0.8
v -0.2 0 -0.9
v -0.2 0.1 -0.9
v -0.1 0 -0.9
v -0.1 0.1 -0.9
v -0.3 0 1.3
v -0.2 0 1.3
v -0.4 0 1
v -0.3 0 1
v -0.2 0 1
v -0.1 0 1
v -0.5 0 0.9
v -0.4 0 0.9
v -0.1 0 0.9
v 5.96046e-008 0 0.9
v 5.96046e-008 0 0.8
v 0.1 0 0.8
v -0.6 0 0.7
v -0.5 0 0.7
v 0.1 0 0.7
v 0.2 0 0.7
v -0.7 0 0.6
v -0.6 0 0.6
v 0.2 0 0.5
v 0.3 0 0.5
v -0.7 0 -0.3
v -0.6 0 -0.3
v 0.2 0 -0.3
v 0.3 0 -0.3
v -0.6 0 -0.5
v -0.5 0 -0.5
v 0.1 0 -0.5
v 0.2 0 -0.5
v -0.5 0 -0.6
v -0.4 0 -0.6
v -0.4 0 -0.7
v -0.3 0 -0.7
v 5.96046e-008 0 -0.7
v 0.1 0 -0.7
v -0.3 0 -0.8
v -0.2 0 -0.8
v -0.1 0 -0.8
v 5.96046e-008 0 -0.8
v -0.2 0 -0.9
v -0.1 0 -0.9
v -0.3 0.1 1.3
v -0.2 0.1 1.3
v -0.4 0.1 1
v -0.3 0.1 1
v -0.2 0.1 1
v -0.1 0.1 1
v -0.5 0.1 0.9
v -0.4 0.1 0.9
v -0.1 0.1 0.9
v 5.96046e-008 0.1 0.9
v 5.96046e-008 0.1 0.8
v 0.1 0.1 0.8
v -0.6 0.1 0.7
v -0.5 0.1 0.7
v 0.1 0.1 0.7
v 0.2 0.1 0.7
v -0.7 0.1 0.6
v -0.6 0.1 0.6
v 0.2 0.1 0.5
v 0.3 0.1 0.5
v -0.7 0.1 -0.3
v -0.6 0.1 -0.3
v 0.2 0.1 -0.3
v 0.3 0.1 -0.3
v -0.6 0.1 -0.5
v -0.5 0.1 -0.5
v 0.1 0.1 -0.5
v 0.2 0.1 -0.5
v -0.5 0.1 -0.6
v -0.4 0.1 -0.6
v -0.4 0.1 -0.7
v -0.3 0.1 -0.7
v 5.96046e-008 0.1 -0.7
v 0.1 0.1 -0.7
v -0.3 0.1 -0.8
v -0.2 0.1 -0.8
v -0.1 0.1 -0.8
v 5.96046e-008 0.1 -0.8
v -0.2 0.1 -0.9
v -0.1 0.1 -0.9

# faces
f 3/1/1 2/1/1 1/1/1
f 4/1/1 2/1/1 3/1/1
f 9/1/1 6/1/1 5/1/1
f 10/1/1 6/1/1 9/1/1
f 11/1/1 8/1/1 7/1/1
f 12/1/1 8/1/1 11/1/1
f 17/1/1 14/1/1 13/1/1
f 18/1/1 14/1/1 17/1/1
f 19/1/1 16/1/1 15/1/1
f 20/1/1 16/1/1 19/1/1
f 25/1/1 22/1/1 21/1/1
f 26/1/1 22/1/1 25/1/1
f 27/1/1 24/1/1 23/1/1
f 28/1/1 24/1/1 27/1/1
f 33/3/1 30/3/1 29/3/1
f 34/3/1 30/3/1 33/3/1
f 35/1/1 32/1/1 31/1/1
f 36/1/1 32/1/1 35/1/1
f 39/2/1 38/2/1 37/2/1
f 40/2/1 38/2/1 39/2/1
f 41/3/2 42/3/2 43/3/2
f 43/3/2 42/3/2 44/3/2
f 45/2/2 46/2/2 49/2/2
f 49/2/2 46/2/2 50/2/2
f 47/2/2 48/2/2 51/2/2
f 51/2/2 48/2/2 52/2/2
f 53/2/2 54/2/2 57/2/2
f 57/2/2 54/2/2 58/2/2
f 55/2/2 56/2/2 59/2/2
f 59/2/2 56/2/2 60/2/2
f 61/2/2 62/2/2 65/2/2
f 65/2/2 62/2/2 66/2/2
f 63/2/2 64/2/2 67/2/2
f 67/2/2 64/2/2 68/2/2
f 69/2/2 70/2/2 73/2/2
f 73/2/2 70/2/2 74/2/2
f 71/2/2 72/2/2 75/2/2
f 75/2/2 72/2/2 76/2/2
f 77/2/2 78/2/2 79/2/2
f 79/2/2 78/2/2 80/2/2
f 83/3/3 82/3/3 81/3/3
f 84/3/3 82/3/3 83/3/3
f 87/1/3 86/1/3 85/1/3
f 88/1/3 86/1/3 87/1/3
f 91/2/3 90/2/3 89/2/3
f 92/2/3 90/2/3 91/2/3
f 95/1/3 94/1/3 93/1/3
f 96/1/3 94/1/3 95/1/3
f 99/2/3 98/2/3 97/2/3
f 100/2/3 98/2/3 99/2/3
f 103/2/3 102/2/3 101/2/3
f 104/2/3 102/2/3 103/2/3
f 107/1/3 106/1/3 105/1/3
f 108/1/3 106/1/3 107/1/3
f 111/2/3 110/2/3 109/2/3
f 112/2/3 110/2/3 111/2/3
f 115/1/3 114/1/3 113/1/3
f 116/1/3 114/1/3 115/1/3
f 119/2/3 118/2/3 117/2/3
f 120/2/3 118/2/3 119/2/3
f 121/1/4 122/1/4 123/1/4
f 123/1/4 122/1/4 124/1/4
f 125/2/4 126/2/4 127/2/4
f 127/2/4 126/2/4 128/2/4
f 129/1/4 130/1/4 131/1/4
f 131/1/4 130/1/4 132/1/4
f 133/2/4 134/2/4 135/2/4
f 135/2/4 134/2/4 136/2/4
f 137/1/4 138/1/4 139/1/4
f 139/1/4 138/1/4 140/1/4
f 141/1/4 142/1/4 143/1/4
f 143/1/4 142/1/4 144/1/4
f 145/2/4 146/2/4 147/2/4
f 147/2/4 146/2/4 148/2/4
f 149/1/4 150/1/4 151/1/4
f 151/1/4 150/1/4 152/1/4
f 153/2/4 154/2/4 155/2/4
f 155/2/4 154/2/4 156/2/4
f 157/2/4 158/2/4 159/2/4
f 159/2/4 158/2/4 160/2/4
f 164/3/5 162/3/5 161/3/5
f 165/3/5 162/3/5 164/3/5
f 168/1/5 164/1/5 163/1/5
f 168/1/5 165/1/5 164/1/5
f 169/2/5 166/2/5 165/2/5
f 171/2/5 170/2/5 169/2/5
f 174/1/5 168/1/5 167/1/5
f 175/2/5 172/2/5 171/2/5
f 178/1/5 174/1/5 173/1/5
f 179/2/5 176/2/5 175/2/5
f 181/1/5 178/1/5 177/1/5
f 182/1/5 174/1/5 178/1/5
f 182/1/5 178/1/5 181/1/5
f 183/2/5 180/2/5 179/2/5
f 183/2/5 179/2/5 175/2/5
f 184/2/5 180/2/5 183/2/5
f 185/1/5 174/1/5 182/1/5
f 186/1/5 168/1/5 174/1/5
f 186/1/5 174/1/5 185/1/5
f 187/2/5 175/2/5 171/2/5
f 187/2/5 183/2/5 175/2/5
f 188/2/5 183/2/5 187/2/5
f 189/1/5 168/1/5 186/1/5
f 190/1/5 165/1/5 168/1/5
f 190/1/5 168/1/5 189/1/5
f 191/1/5 165/1/5 190/1/5
f 192/1/5 165/1/5 191/1/5
f 193/2/5 171/2/5 169/2/5
f 193/2/5 187/2/5 171/2/5
f 194/2/5 187/2/5 193/2/5
f 195/1/5 165/1/5 192/1/5
f 196/2/5 169/2/5 165/2/5
f 196/1/5 165/1/5 195/1/5
f 196/2/5 193/2/5 169/2/5
f 197/2/5 193/2/5 196/2/5
f 198/2/5 193/2/5 197/2/5
f 199/2/5 197/2/5 196/2/5
f 200/2/5 197/2/5 199/2/5
f 201/3/6 202/3/6 204/3/6
f 204/3/6 202/3/6 205/3/6
f 203/1/6 204/1/6 208/1/6
f 204/1/6 205/1/6 208/1/6
f 205/2/6 206/2/6 209/2/6
f 209/2/6 210/2/6 211/2/6
f 207/1/6 208/1/6 214/1/6
f 211/2/6 212/2/6 215/2/6
f 213/1/6 214/1/6 218/1/6
f 215/2/6 216/2/6 219/2/6
f 217/1/6 218/1/6 221/1/6
f 218/1/6 214/1/6 222/1/6
f 221/1/6 218/1/6 222/1/6
f 219/2/6 220/2/6 223/2/6
f 215/2/6 219/2/6 223/2/6
f 223/2/6 220/2/6 224/2/6
f 222/1/6 214/1/6 225/1/6
f 214/1/6 208/1/6 226/1/6
f 225/1/6 214/1/6 226/1/6
f 211/2/6 215/2/6 227/2/6
f 215/2/6 223/2/6 227/2/6
f 227/2/6 223/2/6 228/2/6
f 226/1/6 208/1/6 229/1/6
f 208/1/6 205/1/6 230/1/6
f 229/1/6 208/1/6 230/1/6
f 230/1/6 205/1/6 231/1/6
f 231/1/6 205/1/6 232/1/6
f 209/2/6 211/2/6 233/2/6
f 211/2/6 227/2/6 233/2/6
f 233/2/6 227/2/6 234/2/6
f 232/1/6 205/1/6 235/1/6
f 205/2/6 209/2/6 236/2/6
f 235/1/6 205/1/6 236/1/6
f 209/2/6 233/2/6 236/2/6
f 236/2/6 233/2/6 237/2/6
f 237/2/6 233/2/6 238/2/6
f 236/2/6 237/2/6 239/2/6
f 239/2/6 237/2/6 240/2/6
